<svg width="7955" height="3097" viewBox="0 0 7955 3097" fill="none" xmlns="http://www.w3.org/2000/svg">
<path d="M2557.66 3056H2057.93V1869.15L2557.66 1806.69V3056ZM2030.86 1571.4C2030.86 1533.92 2035.03 1502.69 2043.36 1477.7C2051.68 1451.33 2066.26 1430.51 2087.08 1415.24C2107.9 1398.58 2136.36 1386.78 2172.45 1379.84C2208.54 1372.9 2254.35 1369.43 2309.88 1369.43C2365.4 1369.43 2410.51 1372.9 2445.22 1379.84C2481.31 1386.78 2509.77 1398.58 2530.59 1415.24C2551.41 1430.51 2565.98 1451.33 2574.31 1477.7C2582.64 1502.69 2586.81 1533.92 2586.81 1571.4C2586.81 1608.88 2582.64 1640.11 2574.31 1665.1C2565.98 1690.09 2551.41 1710.91 2530.59 1727.57C2509.77 1742.83 2481.31 1753.94 2445.22 1760.88C2410.51 1766.43 2365.4 1769.21 2309.88 1769.21C2269.62 1769.21 2232.14 1767.82 2197.44 1765.04C2164.12 1762.27 2134.97 1754.63 2109.99 1742.14C2085 1728.26 2065.57 1708.13 2051.68 1681.76C2037.8 1655.38 2030.86 1618.6 2030.86 1571.4ZM2750.76 3026.77L2827.2 2581.63C2992.07 2622.1 3141.2 2642.33 3274.59 2642.33C3342.04 2642.33 3401.24 2641.58 3452.2 2640.08C3504.66 2637.09 3551.12 2632.59 3591.59 2626.6V2491.7L3348.78 2471.47C3239.37 2460.98 3147.94 2442.99 3074.5 2417.51C3001.06 2392.03 2941.86 2357.56 2896.9 2314.1C2853.43 2269.13 2821.96 2215.93 2802.47 2154.48C2784.49 2091.53 2775.49 2018.09 2775.49 1934.15C2775.49 1818.75 2787.49 1722.82 2811.47 1646.38C2835.45 1568.45 2873.67 1506.25 2926.12 1459.79C2978.58 1411.82 3046.03 1378.1 3128.46 1358.62C3212.39 1339.13 3314.31 1329.39 3434.21 1329.39C3672.52 1329.39 3888.35 1351.87 4081.69 1396.84L4014.25 1828.49C3846.38 1801.51 3712.24 1788.02 3611.82 1788.02C3511.4 1788.02 3425.97 1792.52 3355.53 1801.51V1934.15L3548.87 1952.14C3667.28 1964.13 3766.2 1984.36 3845.63 2012.84C3925.07 2039.82 3988.77 2075.79 4036.73 2120.75C4086.19 2165.72 4120.66 2218.92 4140.15 2280.37C4161.13 2341.82 4171.62 2412.27 4171.62 2491.7C4171.62 2605.61 4156.63 2701.54 4126.66 2779.47C4096.68 2857.41 4060.71 2916.61 4018.74 2957.08C3984.27 2990.05 3941.56 3016.28 3890.6 3035.77C3839.64 3053.75 3785.68 3067.24 3728.73 3076.23C3671.77 3085.23 3614.07 3090.47 3555.62 3091.97C3498.66 3094.97 3446.95 3096.47 3400.49 3096.47C3283.59 3096.47 3171.18 3090.47 3063.26 3078.48C2955.35 3066.49 2851.18 3049.26 2750.76 3026.77ZM4956.2 1769.21C5355.98 1769.21 5555.87 1906.63 5555.87 2181.48V3056H5306.01L5164.42 2914.41C5139.43 2942.17 5109.59 2967.16 5074.88 2989.37C5041.57 3011.58 5005.48 3030.32 4966.61 3045.59C4927.74 3060.86 4888.18 3072.66 4847.93 3080.99C4807.67 3089.31 4768.8 3093.48 4731.32 3093.48C4660.53 3093.48 4596.67 3085.84 4539.76 3070.58C4484.24 3056.69 4437.04 3033.79 4398.17 3001.86C4359.31 2969.94 4329.46 2927.6 4308.64 2874.85C4287.82 2822.1 4277.41 2757.55 4277.41 2681.21C4277.41 2381.37 4503.67 2231.45 4956.2 2231.45H5056.14V2141.92C5029.77 2140.53 5005.48 2139.14 4983.27 2137.76C4962.45 2136.37 4943.01 2135.67 4924.97 2135.67C4737.57 2135.67 4575.85 2158.58 4439.82 2204.39L4379.43 1846.25C4546.01 1794.89 4738.26 1769.21 4956.2 1769.21ZM4781.3 2627.07V2729.1H4885.4C4957.59 2729.1 5004.78 2720.77 5026.99 2704.11C5046.43 2686.06 5056.14 2664.55 5056.14 2639.56V2520.88H4954.12C4894.43 2520.88 4850.7 2527.12 4822.94 2539.62C4795.18 2552.11 4781.3 2581.26 4781.3 2627.07ZM5780.09 3056V1806.69H6029.96L6167.38 1946.19C6267.33 1854.58 6390.87 1795.58 6538.01 1769.21L6567.16 2241.87C6547.73 2241.87 6524.13 2244.64 6496.37 2250.19C6468.6 2255.75 6440.15 2262.69 6411 2271.02C6383.23 2279.34 6357.55 2289.76 6333.96 2302.25C6310.36 2313.35 6292.31 2326.54 6279.82 2341.81V3056H5780.09ZM7954.3 1394.42V3056H7704.44L7596.17 2951.89C7525.37 3046.28 7394.89 3093.48 7204.72 3093.48C7104.77 3093.48 7020.79 3075.43 6952.77 3039.34C6884.75 3003.25 6829.23 2955.36 6786.2 2895.67C6744.55 2834.59 6714.01 2763.8 6694.58 2683.29C6676.53 2602.78 6667.51 2518.8 6667.51 2431.34C6667.51 2348.06 6675.84 2268.93 6692.5 2193.98C6709.16 2117.63 6736.92 2051 6775.79 1994.09C6814.65 1937.17 6866.01 1892.06 6929.87 1858.74C6993.72 1824.04 7072.84 1806.69 7167.24 1806.69H7454.58V1431.9L7954.3 1394.42ZM7204.72 2239.78V2729.1H7281.76C7338.67 2729.1 7380.31 2724.24 7406.69 2714.52C7434.45 2703.42 7450.41 2678.43 7454.58 2639.56V2133.59H7377.54C7316.46 2133.59 7272.04 2139.84 7244.28 2152.33C7217.9 2164.82 7204.72 2193.98 7204.72 2239.78Z" fill="black"/>
<path d="M961.698 14.644C961.702 2.4522 1114.71 -11.0756 1197.46 14.644C1312.13 50.2809 1375.75 89.968 1504.86 199.22C1535.15 224.863 1585.5 252.085 1630.4 267.115C1697.1 289.444 1714.15 301.626 1785.29 377.791C1878.9 477.999 1991.85 642.06 2060.08 776.877C2113.11 881.679 2116.33 898.719 2091.99 945.786C2076.32 976.088 2082.25 982.628 2026.86 976.962C2026.7 976.938 1981.68 970.117 1959.35 965.685C1850.67 944.117 1786.95 928.926 1726.65 912.51C1666.35 896.094 1621.51 879.459 1598.67 867.808C1549.3 842.618 1523.14 840.763 1523.14 862.441C1523.14 880.21 1561.68 909.817 1629.47 944.118C1672.73 966.005 1675.7 970.744 1687.46 1036.67C1757.01 1426.56 1725.56 1754.14 1572.15 2238.09C1494.25 2483.8 1446.01 2744.31 1445.91 2919.81C1445.83 3041.19 1445.27 3043.98 1419.56 3050.43C1366.32 3063.79 1331.99 3051.97 1321.44 3016.65C1302.47 2953.13 1307.01 2508.4 1327.91 2381.66C1354.77 2218.91 1420.37 1940.69 1458.01 1829.92C1489.31 1737.83 1488.07 1708.96 1453.39 1722.27C1444.57 1725.65 1421.54 1769.79 1402.2 1820.37C1351.19 1953.77 1334.92 2016.12 1263 2354.05C1219.72 2557.37 1169.28 2849.38 1162.85 2933.82C1158.91 2985.45 1150.8 3033.91 1144.8 3041.5C1138.82 3049.1 1112 3055.3 1085.22 3055.3C1056.2 3055.3 1034.6 3049.72 1031.74 3041.5C1029.1 3033.91 1014.63 2801.58 999.603 2525.22C970.569 1991.52 964.142 1946.4 909.952 1895.49C887.247 1874.16 882.2 1872.97 876.59 1887.58C872.957 1897.05 877.794 1919.91 887.347 1938.37C898.909 1960.75 904.707 2001.61 904.707 2060.81C904.707 2146.82 903.469 2151.06 866.165 2192.35C829.523 2232.9 697.113 2328.85 656.021 2344.62C634.033 2353.05 634.088 2354.3 674.507 2775.47C687.428 2910.07 694.971 3028.09 691.271 3037.75C686.236 3050.87 669.063 3055.3 623.211 3055.3C550.082 3055.3 555.173 3063.61 508.194 2867.56C490.006 2791.64 456.798 2654.47 434.391 2562.76L393.674 2395.99L476.488 2299.84C563.035 2199.36 592.93 2154.54 581.202 2142.82C577.37 2138.99 538.408 2169.04 494.61 2209.59C450.812 2250.14 383.536 2303.65 345.105 2328.5L275.234 2373.68L275.499 2441.17C275.643 2478.29 280.568 2627.66 286.443 2773.1C294.847 2981.06 294.195 3039.41 283.417 3046.26C275.874 3051.05 241.033 3055.04 205.981 3055.14C129.385 3055.33 129.252 3055.14 104.271 2895.17C94.7852 2834.43 81.9531 2752.44 75.7578 2712.96C69.5624 2673.48 49.9828 2554.59 32.2471 2448.79L0 2256.39L37.7461 2214.61C116.242 2127.72 148.567 2038.52 176.44 1831.82C188.146 1745.04 200.459 1663.04 203.794 1649.6C208.929 1628.96 201.674 1621.44 156.971 1601.03C108.7 1579 53.726 1517.22 68.8994 1502.06C72.0026 1498.96 160.693 1494.71 265.991 1492.62C529.364 1487.4 773.39 1436.17 906.595 1358.13C1152.87 1213.88 1302.09 918.31 1306.32 566.369L1307.79 443.544L1252.57 437.206C1156.44 426.173 1102.53 382.364 1099.49 312.824L1097.97 277.893L1211.16 274.747C1297.74 272.339 1316.19 271.379 1326.36 256.114C1336.54 240.849 1390.81 201.217 1197.46 85.8813C1138.69 44.2478 961.698 55.3505 961.698 14.644ZM1703.33 425.679C1650.65 398.54 1585.92 419.187 1558.75 471.796C1531.57 524.405 1552.25 589.054 1604.92 616.193C1616.77 622.296 1629.22 625.982 1641.73 627.432C1710.17 640.242 1882.62 635.116 1882.85 635.11C1882.69 634.87 1780.2 478.263 1721.16 437.204C1715.71 432.863 1709.76 428.992 1703.33 425.679ZM1617.78 502.219C1628.14 482.178 1652.8 474.312 1672.86 484.651C1692.93 494.989 1700.8 519.617 1690.45 539.659C1680.1 559.7 1655.44 567.567 1635.38 557.228C1615.31 546.889 1607.43 522.261 1617.78 502.219Z" fill="black"/>
</svg>
